# xmcd
#
# Track frame offsets:
#	150
#	18233
#	34216
#	53294
#	69450
#	82131
#	97411
#	115194
#	134177
#	150682
#	166503
#	182729
#	200090
#	219673
#	237756
#	254750
#	270740
#	291002
#	307651
#	324194
#
# Disc length: 4543 seconds
#
# Revision: 1
# Processed by: cddbd v1.5.2PL0 Copyright (c) Steve Scherf et al.
# Submitted via: audiograbber 1.83.01
#
DISCID=1f11bd14
DTITLE=aerh - adfn
DYEAR=1900
DGENRE=
TTITLE0=little mix - black magic
TTITLE1=lmfao - sexy and i know it
TTITLE2=lukas graham - 7 years
TTITLE3=lukas graham - mama said
TTITLE4=lumineers - ho hey
TTITLE5=Major Lazer FT Justin Bieber\n - cold water
TTITLE6=marlon roudette - when the best drops out
TTITLE7=maroon 5 - sugar
TTITLE8=Maroon 5 Ft Christina Aguilera\n - moves like jagger
TTITLE9=meghan trainor - all about that bass
TTITLE10=micheal buble - it's a beautiful day
TTITLE11=miley cyrus - wreacking ball
TTITLE12=nathan sykes - over and over again
TTITLE13=nick jonus - jealous
TTITLE14=nicki minaj - starships
TTITLE15=nicole scherzinger - boomerang
TTITLE16=noel gallagher - aka... what a life
TTITLE17=olly murs - dance with me tonight
TTITLE18=olly murs - dear darling
TTITLE19=olly murs - heart skip a beat
EXTD=
EXTT0=
EXTT1=
EXTT2=
EXTT3=
EXTT4=
EXTT5=
EXTT6=
EXTT7=
EXTT8=
EXTT9=
EXTT10=
EXTT11=
EXTT12=
EXTT13=
EXTT14=
EXTT15=
EXTT16=
EXTT17=
EXTT18=
EXTT19=
PLAYORDER=
